<?xml version="1.0" standalone="no"?>
<!DOCTYPE svg PUBLIC "-//W3C//DTD SVG 20010904//EN"
 "http://www.w3.org/TR/2001/REC-SVG-20010904/DTD/svg10.dtd">
<svg version="1.0" xmlns="http://www.w3.org/2000/svg"
 width="512.000000pt" height="512.000000pt" viewBox="0 0 512.000000 512.000000"
 preserveAspectRatio="xMidYMid meet">

<g transform="translate(0.000000,512.000000) scale(0.100000,-0.100000)"
fill="#000000" stroke="none">
<path d="M1161 4718 c0 -7 116 -245 258 -528 l258 -514 352 527 351 527 -610
0 c-482 0 -610 -3 -609 -12z"/>
<path d="M3091 4203 l352 -527 258 514 c142 283 258 521 258 528 1 9 -127 12
-609 12 l-610 0 351 -527z"/>
<path d="M685 4354 c-110 -131 -306 -368 -437 -526 -131 -157 -238 -289 -238
-292 0 -3 315 -6 700 -6 385 0 700 3 699 8 0 4 -118 243 -263 531 l-263 525
-198 -240z"/>
<path d="M3972 4064 c-144 -288 -262 -526 -262 -529 0 -3 315 -5 700 -5 385 0
700 3 700 6 0 6 -858 1041 -869 1048 -4 3 -125 -231 -269 -520z"/>
<path d="M2247 3990 l-307 -460 620 0 620 0 -307 460 c-168 253 -309 460 -313
460 -4 0 -145 -207 -313 -460z"/>
<path d="M10 3225 c0 -9 2332 -2816 2337 -2812 2 3 -177 637 -398 1411 l-402
1406 -768 0 c-423 0 -769 -2 -769 -5z"/>
<path d="M1862 3218 c3 -7 159 -556 349 -1220 189 -665 346 -1208 349 -1208 3
0 160 543 349 1208 190 664 346 1213 349 1220 3 9 -141 12 -698 12 -557 0
-701 -3 -698 -12z"/>
<path d="M3171 1824 c-221 -774 -400 -1408 -398 -1411 4 -4 2337 2803 2337
2812 0 3 -346 5 -769 5 l-768 0 -402 -1406z"/>
</g>
</svg>
