<?xml version="1.0" standalone="no"?>
<!DOCTYPE svg PUBLIC "-//W3C//DTD SVG 20010904//EN"
 "http://www.w3.org/TR/2001/REC-SVG-20010904/DTD/svg10.dtd">
<svg version="1.0" xmlns="http://www.w3.org/2000/svg"
 width="512.000000pt" height="512.000000pt" viewBox="0 0 512.000000 512.000000"
 preserveAspectRatio="xMidYMid meet">

<g transform="translate(0.000000,512.000000) scale(0.100000,-0.100000)"
fill="#000000" stroke="none">
<path d="M1072 4623 c-11 -10 -219 -290 -463 -623 -306 -417 -444 -614 -447
-635 -3 -28 102 -159 1168 -1445 645 -778 1182 -1420 1193 -1427 31 -17 58
-15 83 5 12 9 547 651 1188 1425 940 1135 1166 1414 1166 1436 0 23 -104 159
-491 642 -269 338 -497 620 -506 627 -13 9 -318 12 -1444 12 -1345 0 -1428 -1
-1447 -17z m1060 -623 c-158 -263 -289 -479 -292 -479 -3 0 -134 216 -292 479
l-287 480 579 0 579 0 -287 -480z m1644 464 c-10 -26 -487 -918 -496 -927 -4
-5 -136 205 -293 467 l-286 476 541 0 c488 0 540 -2 534 -16z m-2363 -546
l286 -478 -650 0 -651 0 38 53 c21 28 47 64 58 80 l20 27 183 0 183 0 0 80 0
80 -120 0 c-66 0 -120 2 -120 5 0 6 385 534 443 608 16 21 33 35 37 30 4 -4
136 -223 293 -485z m2796 155 c132 -167 241 -305 241 -308 0 -3 -65 -5 -145
-5 l-145 0 0 -80 0 -80 213 0 214 0 61 -77 61 -78 -641 -3 c-353 -1 -643 0
-646 2 -3 4 306 592 471 894 38 71 40 73 57 55 10 -10 126 -154 259 -320z
m-1357 -153 l287 -480 -579 0 -579 0 287 480 c158 263 289 479 292 479 3 0
134 -216 292 -479z m-1068 -662 c299 -1160 604 -2353 602 -2356 -2 -1 -360
428 -797 955 -436 527 -880 1063 -986 1191 l-193 232 684 0 684 0 6 -22z
m1361 -100 c-17 -68 -155 -603 -306 -1190 -151 -588 -276 -1068 -279 -1068 -3
0 -128 480 -279 1068 -151 587 -289 1122 -306 1190 l-32 122 617 0 617 0 -32
-122z m1372 -110 c-106 -128 -550 -664 -986 -1191 -437 -527 -795 -956 -797
-955 -2 3 112 448 602 2356 l6 22 684 0 684 0 -193 -232z"/>
<path d="M3840 3680 l0 -80 80 0 80 0 0 80 0 80 -80 0 -80 0 0 -80z"/>
<path d="M797 3117 l-57 -52 397 -477 c219 -262 400 -477 403 -477 3 0 31 23
63 52 l57 52 -397 477 c-219 262 -400 477 -403 477 -3 0 -31 -23 -63 -52z"/>
<path d="M1680 2075 l-54 -55 34 -35 c19 -19 39 -35 45 -35 7 0 27 17 46 38
68 76 66 69 29 107 -19 19 -37 35 -40 35 -3 0 -30 -25 -60 -55z"/>
<path d="M586 2137 c-17 -17 -24 -39 -29 -85 -7 -65 -38 -138 -81 -189 -39
-46 -134 -92 -207 -100 -75 -7 -109 -34 -109 -83 0 -49 35 -76 108 -83 157
-17 272 -132 289 -288 7 -75 34 -109 83 -109 49 0 76 35 83 108 17 158 131
272 289 289 73 7 108 34 108 83 0 49 -34 76 -109 83 -156 17 -271 132 -288
289 -7 73 -34 108 -83 108 -19 0 -40 -9 -54 -23z m116 -392 l65 -65 -64 -63
-63 -64 -63 64 -64 63 61 64 c34 34 61 64 62 65 0 0 30 -28 66 -64z"/>
<path d="M4186 1497 c-17 -17 -24 -39 -29 -85 -7 -65 -38 -138 -81 -189 -39
-46 -134 -92 -207 -100 -75 -7 -109 -34 -109 -83 0 -49 35 -76 108 -83 157
-17 272 -132 289 -288 7 -75 34 -109 83 -109 49 0 76 35 83 108 17 158 131
272 289 289 73 7 108 34 108 83 0 49 -34 76 -109 83 -156 17 -271 132 -288
289 -7 73 -34 108 -83 108 -19 0 -40 -9 -54 -23z m116 -392 l65 -65 -64 -63
-63 -64 -63 64 -64 63 61 64 c34 34 61 64 62 65 0 0 30 -28 66 -64z"/>
</g>
</svg>
